<?xml version="1.0" standalone="no"?>
<!DOCTYPE svg PUBLIC "-//W3C//DTD SVG 20010904//EN"
 "http://www.w3.org/TR/2001/REC-SVG-20010904/DTD/svg10.dtd">
<svg version="1.0" xmlns="http://www.w3.org/2000/svg"
 width="96.000000pt" height="96.000000pt" viewBox="0 0 96.000000 96.000000"
 preserveAspectRatio="xMidYMid meet">
<metadata>
Created by potrace 1.14, written by Peter Selinger 2001-2017
</metadata>
<g transform="translate(0.000000,96.000000) scale(0.100000,-0.100000)"
fill="#000000" stroke="none">
<path d="M426 761 c-3 -5 -22 -12 -41 -15 -19 -4 -35 -11 -35 -16 0 -6 -7 -10
-15 -10 -8 0 -15 -5 -15 -11 0 -5 -4 -7 -10 -4 -5 3 -10 -1 -10 -10 0 -9 -4
-14 -9 -10 -5 3 -12 -4 -16 -15 -4 -12 -11 -17 -18 -14 -7 4 -9 3 -4 -1 4 -5
-1 -17 -10 -28 -10 -11 -12 -17 -6 -13 9 5 11 2 7 -8 -3 -9 -10 -16 -15 -16
-5 0 -9 -6 -9 -12 0 -7 -14 -14 -32 -15 -18 -1 -36 -9 -41 -18 -4 -8 -11 -14
-15 -11 -4 2 -13 -2 -20 -10 -7 -8 -10 -14 -7 -14 3 0 -4 -10 -15 -22 -11 -12
-18 -28 -16 -35 3 -7 1 -15 -4 -18 -10 -6 -5 -105 7 -114 4 -3 10 -15 11 -26
2 -11 8 -24 14 -30 8 -7 8 -6 3 4 -5 9 -4 12 3 7 7 -4 12 -14 12 -22 0 -8 4
-12 10 -9 6 3 10 2 10 -3 0 -9 11 -14 60 -29 17 -5 281 -7 353 -2 38 2 47 6
47 21 0 10 -6 18 -12 19 -92 4 -218 2 -218 -4 0 -4 -9 -3 -20 3 -14 8 -20 8
-20 0 0 -6 -5 -8 -11 -4 -6 3 -32 6 -58 6 -49 -1 -135 33 -125 49 3 5 1 9 -5
9 -20 0 -34 84 -19 114 8 14 7 17 -4 10 -7 -4 -4 2 6 14 11 12 15 22 10 22 -5
0 3 8 16 17 14 10 29 17 33 15 5 -1 6 2 2 8 -6 10 -5 11 30 15 32 3 67 25 62
38 -2 7 5 24 15 40 11 15 16 27 11 27 -4 0 4 8 20 18 15 10 24 21 21 25 -4 3
5 9 20 13 14 3 26 9 26 13 0 4 6 8 13 9 6 1 23 3 37 5 14 1 30 6 36 10 6 3 14
3 18 0 4 -4 16 -8 27 -10 11 -2 30 -9 42 -15 12 -7 25 -11 30 -10 4 1 7 -4 7
-11 0 -7 9 -23 19 -34 11 -12 18 -22 17 -24 -2 -2 10 -17 26 -34 17 -16 27
-24 23 -16 -6 10 -4 12 6 5 8 -5 22 -9 32 -10 9 -1 19 -3 22 -4 3 -1 8 -3 13
-4 4 -1 13 -5 21 -10 10 -6 12 -6 6 3 -5 9 -1 9 14 -1 12 -7 21 -18 21 -25 0
-7 4 -13 8 -13 31 0 48 -133 21 -166 -6 -8 -8 -14 -3 -14 5 0 -2 -10 -16 -21
-14 -11 -18 -18 -10 -14 8 4 6 -1 -5 -10 -11 -9 -32 -19 -47 -22 -16 -3 -28
-11 -28 -17 0 -6 -5 -4 -10 4 -7 11 -10 11 -10 2 0 -10 -5 -10 -20 -2 -14 8
-20 8 -20 0 0 -7 -6 -8 -17 -2 -11 7 -21 6 -30 -3 -15 -15 -18 -29 -4 -21 5 4
11 1 13 -6 5 -15 101 -11 143 6 56 24 124 103 109 127 -3 5 -1 9 4 9 14 0 6
109 -10 139 -20 41 -74 91 -96 91 -12 0 -23 4 -26 9 -3 5 -20 8 -37 7 -23 -2
-34 4 -46 25 -9 16 -21 25 -26 22 -5 -3 -8 0 -5 8 3 8 0 18 -7 24 -6 5 -23 20
-37 33 -14 13 -32 24 -39 26 -8 1 -18 4 -24 7 -5 4 -18 5 -27 4 -10 -2 -18 2
-18 8 0 8 -3 8 -12 -1 -7 -7 -17 -8 -29 -2 -10 6 -20 6 -23 1z"/>
</g>
</svg>
